<svg id="Layer_1" data-name="Layer 1" xmlns="http://www.w3.org/2000/svg" viewBox="0 0 505.5 522.09"><defs><style>.cls-1{fill:#588b8b;}.cls-2{fill:#ffd0cb;}</style></defs><path class="cls-1" d="M451.81,462.83c-44.63,47.52-107.24,77.08-176.56,77.08a238.86,238.86,0,0,1-103.49-23.47H344.14a106.33,106.33,0,0,0,63-20.69Z" transform="translate(-25.55 -17.82)"/><path class="cls-1" d="M520.69,287.5a262.34,262.34,0,0,1-2.43,35.68,49.92,49.92,0,0,0-51.86,4.43l-.19.13-101,74.45H346.08a46,46,0,0,0,15.12-7.75A42.09,42.09,0,0,0,377,368.21a43.15,43.15,0,0,0-42.55-50.27H194a118.7,118.7,0,0,0-74.49,26.38L82.86,374.1H44.64a258.42,258.42,0,0,1-14.82-86.6C29.82,171.16,106.35,73.21,210.47,44V81.6h-48a30.79,30.79,0,0,0-30.76,30.75v63a30.79,30.79,0,0,0,30.76,30.75h48v48a30.8,30.8,0,0,0,30.76,30.76h63A30.79,30.79,0,0,0,335,254.14v-48h48a30.78,30.78,0,0,0,30.75-30.75v-63A30.78,30.78,0,0,0,383,81.6H335v-39C441.67,70.07,520.69,169.29,520.69,287.5Z" transform="translate(-25.55 -17.82)"/><path class="cls-2" d="M398.77,112.35v63A15.75,15.75,0,0,1,383,191.12H320v63a15.76,15.76,0,0,1-15.75,15.76h-63a15.77,15.77,0,0,1-15.76-15.76v-63h-63a15.75,15.75,0,0,1-15.76-15.75v-63A15.75,15.75,0,0,1,162.46,96.6h63v-63a15.77,15.77,0,0,1,15.76-15.76h63A15.76,15.76,0,0,1,320,33.58v63h63A15.75,15.75,0,0,1,398.77,112.35Z" transform="translate(-25.55 -17.82)"/><path class="cls-2" d="M516.8,396.26l-32.95,24.3-85.56,63.09a92,92,0,0,1-54.15,17.79H39.6a14.14,14.14,0,0,1-14-14V403.14a14.14,14.14,0,0,1,14.05-14H88.18L129,356a103.29,103.29,0,0,1,65-23H334.47a28.14,28.14,0,0,1,27.75,32.81c-2.3,13.81-15.25,23.35-29.29,23.35H264.26a14,14,0,0,0,0,28.09H370.12l105-77.39.12-.1a35.08,35.08,0,0,1,41.53,56.56Z" transform="translate(-25.55 -17.82)"/></svg>