<svg id="Layer_1" data-name="Layer 1" xmlns="http://www.w3.org/2000/svg" viewBox="0 0 490.87 530.68"><defs><style>.cls-1{fill:#588b8b;}.cls-2{fill:#ffd0cb;}</style></defs><path class="cls-1" d="M411,498.09a239.91,239.91,0,0,1-271.76.12c4.69.7,9.47,1.48,14.31,2.33,33.95,6,62,14.51,83.35,25.27a27.42,27.42,0,0,0,12.31,3,26.84,26.84,0,0,0,25.41-17.95A26.85,26.85,0,0,0,300,528.76a27.62,27.62,0,0,0,12.33-2.94c21.37-10.75,49.4-19.25,83.32-25.26C400.85,499.65,406,498.83,411,498.09Z" transform="translate(-29.57 -9.66)"/><path class="cls-1" d="M506.92,370.71V265.13c0-21-17.44-38-38.86-38-.76,0-1.53,0-2.29.06-44.63,2.53-127.34,11.59-180,43.83a26.13,26.13,0,0,0-11.18,14,26.23,26.23,0,0,0-11.22-14c-23.55-14.42-55.5-25.67-94.93-33.43a641.82,641.82,0,0,0-85.06-10.4c-.76,0-1.53-.06-2.29-.06a39.8,39.8,0,0,0-14.74,2.81A38.78,38.78,0,0,0,53.84,238a37.36,37.36,0,0,0-11.6,27.13V368.2a258.53,258.53,0,0,1-12.67-80.26c0-99.62,56.11-185.77,137.63-226.81a119.87,119.87,0,1,0,214.47-.57c82.13,40.82,138.76,127.3,138.76,227.38A258.21,258.21,0,0,1,506.92,370.71Z" transform="translate(-29.57 -9.66)"/><path class="cls-2" d="M491.92,265.13V454.3c0,12.16-9.83,22.31-22.49,23-9.56.5-21.66,1.35-35.23,2.78-39,4.11-90.15,13-128.59,32.37a12.38,12.38,0,0,1-5.59,1.34,11.64,11.64,0,0,1-11.86-11.45V293.65a11.51,11.51,0,0,1,5.46-9.88c50.36-30.83,132-39.31,173-41.64.48,0,1,0,1.44,0C481.21,242.09,491.91,252.33,491.92,265.13Z" transform="translate(-29.57 -9.66)"/><path class="cls-2" d="M261,293.5V502.34a11.61,11.61,0,0,1-11.83,11.42,12.26,12.26,0,0,1-5.56-1.34c-38.15-19.22-88.85-28.15-127.74-32.3-13.95-1.49-26.36-2.36-36.15-2.88-12.65-.65-22.49-10.79-22.49-23V265.13c0-12.81,10.72-23,23.86-23,.48,0,1,0,1.44,0,41.06,2.34,122.64,10.81,173,41.64A11.29,11.29,0,0,1,261,293.5Z" transform="translate(-29.57 -9.66)"/><path class="cls-2" d="M379.45,114.53A104.87,104.87,0,1,1,357.3,50.07,104.87,104.87,0,0,1,379.45,114.53Z" transform="translate(-29.57 -9.66)"/></svg>