<svg id="Layer_1" data-name="Layer 1" xmlns="http://www.w3.org/2000/svg" viewBox="0 0 491.36 522.84"><defs><style>.cls-1{fill:#588b8b;}.cls-2{fill:#ffd0cb;}</style></defs><path class="cls-1" d="M156.65,507.36H393.28a240.07,240.07,0,0,1-236.63,0Z" transform="translate(-29.28 -15.7)"/><circle class="cls-1" cx="157.04" cy="399.47" r="15.36"/><path class="cls-1" d="M389.62,62.37a129.83,129.83,0,0,1,19.49,68.57c0,72-58.59,130.59-130.6,130.59S147.91,203,147.91,130.94a129.86,129.86,0,0,1,23.05-74C87.26,97.2,29.28,184.58,29.28,285.88a257.42,257.42,0,0,0,27,115.29,136.13,136.13,0,0,1,113.49-122l9-1.51v92l-5.48,1.64a45.63,45.63,0,0,0-32.93,43.91,46.09,46.09,0,0,0,92.18,0,45.63,45.63,0,0,0-32.92-43.91l-5.49-1.64V276.89l8.67,1.13A113,113,0,0,1,226,283.38a158.42,158.42,0,0,0,105.16,0c1.46-.54,2.93-.91,4.23-1.25.82-.22,1.61-.42,2.32-.64l10-3.19v60.17l-6.14,1.27a69.45,69.45,0,0,0-55.32,67.75v42.06a7.66,7.66,0,0,0,6.62,7.67l30.31,4.09s.1,0,.11-.08l2.95-15c0,.07,0,0-.08,0l-24.64-5V409.32c0-17.07,5.83-31.43,16.85-41.53,9.72-8.91,22.79-13.8,36.82-13.8,26.77,0,53.88,18.38,53.88,53.5v33.65l-24.75,5,3,15.08,30.91-6.15a7.7,7.7,0,0,0,6.2-7.53V407.49a69.31,69.31,0,0,0-55.3-67.75L363,338.49v-61.4l8.06.39A136.67,136.67,0,0,1,499.14,389.4a257.73,257.73,0,0,0,21.5-103.52C520.64,188.94,467.54,104.74,389.62,62.37ZM217.05,415.18a30.73,30.73,0,1,1-30.73-30.73A30.76,30.76,0,0,1,217.05,415.18Z" transform="translate(-29.28 -15.7)"/><path class="cls-2" d="M186.32,399.81a15.37,15.37,0,1,0,15.37,15.37A15.39,15.39,0,0,0,186.32,399.81Z" transform="translate(-29.28 -15.7)"/><path class="cls-2" d="M485.93,413.64v43A35.39,35.39,0,0,1,450.59,492H106.43a35.39,35.39,0,0,1-35.34-35.34v-43a120.71,120.71,0,0,1,92.28-117.43v62.34A60.8,60.8,0,0,0,125,415.27a61.46,61.46,0,0,0,122.92,0,60.8,60.8,0,0,0-38.41-56.72V294.71A88.29,88.29,0,0,1,221,297.88a173.71,173.71,0,0,0,111.43,1.3v27a84.92,84.92,0,0,0-61.46,81.3v42.06a22.92,22.92,0,0,0,19.91,22.89l29.81,4a15.58,15.58,0,0,0,17.74-12.16l3-15.15a15.55,15.55,0,0,0-12.08-18l-12.37-2.5V409.32c0-27.61,19.23-40,38.31-40A40.53,40.53,0,0,1,381.88,379c7.76,6.88,11.86,16.73,11.86,28.49v21.09l-12.31,2.49a15.07,15.07,0,0,0-9.82,6.46,15.36,15.36,0,0,0-2.31,11.59l3,15.13a15.39,15.39,0,0,0,6.65,9.85,15.16,15.16,0,0,0,11.4,2.2l30.93-6.15a23.15,23.15,0,0,0,18.57-22.61V407.49a84.78,84.78,0,0,0-61.46-81.32V293.49C439.31,300.47,485.93,351.78,485.93,413.64Z" transform="translate(-29.28 -15.7)"/><path class="cls-2" d="M393.74,130.94a115.4,115.4,0,1,1-35-82.64A115.36,115.36,0,0,1,393.74,130.94Z" transform="translate(-29.28 -15.7)"/></svg>