<svg id="Layer_1" data-name="Layer 1" xmlns="http://www.w3.org/2000/svg" viewBox="0 0 490.86 510.15"><defs><style>.cls-1{fill:#588b8b;}.cls-2{fill:#ffd0cb;}</style></defs><path class="cls-1" d="M291.09,35.85q-.58.6-1.17,1.23l-15,16.16L259.25,36.36l-.47-.5q8-.54,16.22-.54T291.09,35.85Z" transform="translate(-29.57 -29.98)"/><path class="cls-1" d="M520.43,287.73c0,86.57-42.37,163-107,208.42,4.14-6,8.2-12,12.17-17.92,7.25-10.78,14.75-21.91,22.47-32.54,6.85-9.42,14.2-18.8,21.31-27.87,7.61-9.72,15.49-19.76,22.86-30a45.33,45.33,0,0,0,8-24.28c.55-19.11.46-38.5.37-57.25,0-7.08-.07-14.16-.07-21.24v-7.5h-.35c0-5.54.06-11.09.09-16.51.13-19.51.27-39.68-.41-59.56a25.5,25.5,0,0,0-8.69-18.29,32.25,32.25,0,0,0-24.09-7.65c-15.3,1.26-27.28,14.54-27.29,30.24q0,15.36,0,30.72c0,24,0,48.73-.09,73.07a2.46,2.46,0,0,1-.29.89c-23.74,28.75-43.45,52.44-62,74.57-1.37,1.63-2.72,2.6-3.71,2.65s-2.56-.8-4.18-2.34c-4-3.81-9.43-9-9.73-10.64,0-1.61,4.13-7.28,7.76-12.28,1.92-2.64,3.94-5.33,5.9-7.94,6.68-8.89,13.6-18.1,18.68-28.39,6.4-12.94,1.21-27.26-12.92-35.62-13.5-8-28.4-5.79-37.08,5.49-20,26-37.89,49.68-53.58,75.23-7.62,12.42-9.35,29.07-10,42.18-1,19.69-.76,39.64-.55,58.95.08,6.81.15,13.86.18,20.78,0,12.4,7.75,20.09,20.13,20.09h41.29c15.28,0,30.78,0,46.16-.19a239.88,239.88,0,0,1-221.61,0c15.5.17,31.14.2,46.56.2H252c12.38,0,20.1-7.7,20.14-20.09,0-6.92.1-14,.17-20.78.22-19.3.44-39.26-.54-58.95-.66-13.11-2.38-29.75-10-42.18C246.11,345.63,228.25,322,208.21,296c-8.67-11.28-23.57-13.48-37.08-5.49-14.12,8.36-19.31,22.68-12.92,35.62,5.08,10.29,12,19.49,18.69,28.39,1.95,2.6,4,5.3,5.89,7.94,3.64,5,7.75,10.67,7.76,12.26-.3,1.63-5.75,6.85-9.73,10.66-1.61,1.54-3.13,2.4-4.17,2.34s-2.35-1-3.72-2.65c-18.54-22.1-38.25-45.8-62-74.54a2.56,2.56,0,0,1-.32-.9c-.08-24.42-.08-49.25-.08-73.26q0-15.27,0-30.55c0-15.7-12-29-27.29-30.24a32.22,32.22,0,0,0-24.09,7.65,25.46,25.46,0,0,0-8.69,18.29c-.68,19.88-.55,40.06-.42,59.56,0,5.42.08,11,.1,16.51h-.36V285q0,10.62-.06,21.25c-.09,18.75-.18,38.13.37,57.24a45.32,45.32,0,0,0,8,24.28c7.38,10.25,15.25,20.29,22.87,30,7.11,9.07,14.46,18.45,21.3,27.87,7.72,10.63,15.22,21.76,22.48,32.54,4.09,6.06,8.27,12.28,12.51,18.44-65-45.41-107.69-122-107.69-208.94,0-90.16,46-169.29,115.12-213.93-4,22.66,2.14,47,18.39,64.49L179.5,156l-.31.34L261,244.37a18.42,18.42,0,0,0,27.26,0L386.09,139a74.5,74.5,0,0,0,19.64-50.95,77.33,77.33,0,0,0-1.43-14.89C474,117.67,520.43,197.13,520.43,287.73Z" transform="translate(-29.57 -29.98)"/><path class="cls-2" d="M485.67,306.35l-.06-13.87h-.38V285c0-8,.06-16.21.11-24.1.13-19.36.27-39.37-.4-59a10.34,10.34,0,0,0-3.67-7.59,17.51,17.51,0,0,0-12.89-3.92c-7.58.63-13.52,7.35-13.52,15.31q0,15.36,0,30.71c0,24,0,48.76-.09,73.14A17.12,17.12,0,0,1,451,320c-23.77,28.78-43.5,52.5-62.1,74.66-5.23,6.24-10.71,7.79-14.39,8s-9.37-.76-15.36-6.49c-8.56-8.18-13.72-13.13-14.31-20.25-.57-7,3.62-12.74,10.57-22.31,2-2.74,4.05-5.49,6.05-8.14,6.56-8.73,12.76-17,17.23-26,4.2-8.51-4.39-14.45-7.12-16.07s-11.61-6-17.55,1.73c-19.77,25.7-37.38,49-52.68,73.93-5.85,9.52-7.25,23.75-7.81,35.08-1,19.23-.74,38.95-.53,58,.07,6.85.15,13.92.18,20.9,0,4.23.92,5.14,5.13,5.14h23.72c22.85,0,46.47,0,69.68-.25a7.18,7.18,0,0,0,3.66-2.11c6-8.54,12-17.41,17.78-26,7.33-10.88,14.91-22.14,22.79-33,7-9.64,14.44-19.13,21.63-28.3,7.52-9.6,15.3-19.53,22.5-29.52a30.68,30.68,0,0,0,5.19-15.95C485.84,344.24,485.76,325,485.67,306.35Z" transform="translate(-29.57 -29.98)"/><path class="cls-2" d="M257.35,472.15c-.08,6.84-.16,13.92-.18,20.89,0,4.23-.93,5.14-5.13,5.14H228.31c-22.84,0-46.47,0-69.66-.25a7.2,7.2,0,0,1-3.68-2.11c-6-8.54-12-17.41-17.78-26-7.33-10.88-14.91-22.14-22.78-33-7-9.64-14.45-19.13-21.64-28.3C85.25,399,77.47,389,70.28,379.05a30.6,30.6,0,0,1-5.2-15.95c-.54-18.86-.45-38.11-.36-56.74q0-6.94,0-13.88h.38V285c0-8-.06-16.2-.11-24.1-.13-19.35-.26-39.37.41-59a10.3,10.3,0,0,1,3.67-7.59A17.48,17.48,0,0,1,82,190.47c7.57.63,13.51,7.35,13.52,15.31q0,15.27,0,30.54c0,24,0,48.87.08,73.31A17.13,17.13,0,0,0,99.35,320c23.79,28.8,43.52,52.53,62.09,74.66,5.24,6.24,10.72,7.79,14.39,8s9.38-.76,15.36-6.49c8.56-8.18,13.73-13.13,14.31-20.25.57-7-3.62-12.74-10.56-22.31-2-2.75-4.06-5.49-6.05-8.14-6.57-8.73-12.77-17-17.23-26-4.21-8.51,4.38-14.45,7.11-16.07s11.61-6,17.55,1.73c19.77,25.7,37.38,49,52.69,73.93,5.85,9.52,7.24,23.75,7.81,35.08C257.77,433.34,257.56,453.07,257.35,472.15Z" transform="translate(-29.57 -29.98)"/><path class="cls-2" d="M390.73,88.05a59.51,59.51,0,0,1-15.63,40.74L277.24,234.16a3.43,3.43,0,0,1-5.28,0l-72.3-77.85L200,156l-25.9-27.9c-16.36-17.62-19.89-43.9-10.59-65.26a57.59,57.59,0,0,1,10.59-16.25C184,35.87,197.18,30,211.16,30a49.32,49.32,0,0,1,27.13,8.15,53.53,53.53,0,0,1,10,8.44l26.66,28.71,26-28a53.1,53.1,0,0,1,11-9.12A49.1,49.1,0,0,1,338,30.69c14,0,27.15,5.9,37.1,16.6A57.37,57.37,0,0,1,385,62.05,61.14,61.14,0,0,1,390.73,88.05Z" transform="translate(-29.57 -29.98)"/></svg>